M48
; DRILL file {KiCad 8.0.1} date 2024-03-24T23:16:53+0200
; FORMAT={-:-/ absolute / inch / decimal}
; #@! TF.CreationDate,2024-03-24T23:16:53+02:00
; #@! TF.GenerationSoftware,Kicad,Pcbnew,8.0.1
; #@! TF.FileFunction,Plated,1,2,PTH
FMAT,2
INCH
; #@! TA.AperFunction,Plated,PTH,ViaDrill
T1C0.0118
; #@! TA.AperFunction,Plated,PTH,ComponentDrill
T2C0.0295
; #@! TA.AperFunction,Plated,PTH,ComponentDrill
T3C0.0354
; #@! TA.AperFunction,Plated,PTH,ComponentDrill
T4C0.0394
; #@! TA.AperFunction,Plated,PTH,ComponentDrill
T5C0.0433
; #@! TA.AperFunction,Plated,PTH,ComponentDrill
T6C0.0472
; #@! TA.AperFunction,Plated,PTH,ComponentDrill
T7C0.0512
%
G90
G05
T1
X5.997Y-3.302
X6.105Y-4.169
X6.127Y-3.493
T2
X5.8515Y-3.4396
X5.8515Y-3.5184
T3
X4.3268Y-3.9268
X4.3268Y-4.0055
X4.3268Y-4.0843
X4.3288Y-3.7693
X4.4252Y-4.0055
X4.4252Y-4.0843
X4.4272Y-3.7693
X4.4272Y-3.9268
T4
X5.1787Y-3.792
X5.1787Y-4.2644
X5.395Y-2.943
X5.395Y-3.043
X5.495Y-2.943
X5.495Y-3.043
X5.595Y-2.943
X5.595Y-3.043
X5.695Y-2.943
X5.695Y-3.043
X5.795Y-2.943
X5.795Y-3.043
X5.895Y-2.943
X5.895Y-3.043
X5.995Y-2.943
X5.995Y-3.043
X6.095Y-2.943
X6.095Y-3.043
T5
X6.895Y-4.28
X6.995Y-4.28
X7.095Y-4.28
T6
X4.378Y-3.6906
X4.378Y-4.163
T7
X5.1019Y-4.0262
X5.661Y-3.79
M30
