%TF.GenerationSoftware,KiCad,Pcbnew,8.0.1*%
%TF.CreationDate,2024-03-24T23:16:52+02:00*%
%TF.ProjectId,KiCad,4b694361-642e-46b6-9963-61645f706362,rev?*%
%TF.SameCoordinates,Original*%
%TF.FileFunction,Soldermask,Top*%
%TF.FilePolarity,Negative*%
%FSLAX46Y46*%
G04 Gerber Fmt 4.6, Leading zero omitted, Abs format (unit mm)*
G04 Created by KiCad (PCBNEW 8.0.1) date 2024-03-24 23:16:52*
%MOMM*%
%LPD*%
G01*
G04 APERTURE LIST*
G04 Aperture macros list*
%AMRoundRect*
0 Rectangle with rounded corners*
0 $1 Rounding radius*
0 $2 $3 $4 $5 $6 $7 $8 $9 X,Y pos of 4 corners*
0 Add a 4 corners polygon primitive as box body*
4,1,4,$2,$3,$4,$5,$6,$7,$8,$9,$2,$3,0*
0 Add four circle primitives for the rounded corners*
1,1,$1+$1,$2,$3*
1,1,$1+$1,$4,$5*
1,1,$1+$1,$6,$7*
1,1,$1+$1,$8,$9*
0 Add four rect primitives between the rounded corners*
20,1,$1+$1,$2,$3,$4,$5,0*
20,1,$1+$1,$4,$5,$6,$7,0*
20,1,$1+$1,$6,$7,$8,$9,0*
20,1,$1+$1,$8,$9,$2,$3,0*%
G04 Aperture macros list end*
%ADD10RoundRect,0.135000X-0.135000X-0.185000X0.135000X-0.185000X0.135000X0.185000X-0.135000X0.185000X0*%
%ADD11R,1.000000X1.500000*%
%ADD12RoundRect,0.250000X0.625000X-0.350000X0.625000X0.350000X-0.625000X0.350000X-0.625000X-0.350000X0*%
%ADD13O,1.750000X1.200000*%
%ADD14RoundRect,0.135000X0.135000X0.185000X-0.135000X0.185000X-0.135000X-0.185000X0.135000X-0.185000X0*%
%ADD15RoundRect,0.135000X-0.185000X0.135000X-0.185000X-0.135000X0.185000X-0.135000X0.185000X0.135000X0*%
%ADD16R,1.905000X2.000000*%
%ADD17O,1.905000X2.000000*%
%ADD18RoundRect,0.225000X-0.375000X0.225000X-0.375000X-0.225000X0.375000X-0.225000X0.375000X0.225000X0*%
%ADD19RoundRect,0.225000X-0.225000X-0.375000X0.225000X-0.375000X0.225000X0.375000X-0.225000X0.375000X0*%
%ADD20C,3.000000*%
%ADD21C,2.500000*%
%ADD22R,1.700000X1.700000*%
%ADD23O,1.700000X1.700000*%
%ADD24C,1.700000*%
%ADD25C,2.000000*%
G04 APERTURE END LIST*
D10*
%TO.C,R6*%
X162810000Y-98704400D03*
X163830000Y-98704400D03*
%TD*%
%TO.C,R13*%
X156053600Y-94894400D03*
X157073600Y-94894400D03*
%TD*%
D11*
%TO.C,JP2*%
X181173600Y-102133400D03*
X182473600Y-102133400D03*
%TD*%
D12*
%TO.C,B1*%
X148629200Y-89366600D03*
D13*
X148629200Y-87366600D03*
%TD*%
D14*
%TO.C,R16*%
X161063400Y-103454200D03*
X160043400Y-103454200D03*
%TD*%
%TO.C,R2*%
X161290000Y-94919800D03*
X160270000Y-94919800D03*
%TD*%
D15*
%TO.C,R5*%
X163392200Y-95379000D03*
X163392200Y-94359000D03*
%TD*%
D10*
%TO.C,R15*%
X156028200Y-107365800D03*
X157048200Y-107365800D03*
%TD*%
D16*
%TO.C,Q1*%
X175133000Y-108712000D03*
D17*
X177673000Y-108712000D03*
X180213000Y-108712000D03*
%TD*%
D10*
%TO.C,R19*%
X163193000Y-107238800D03*
X164213000Y-107238800D03*
%TD*%
%TO.C,R10*%
X156057600Y-103378000D03*
X157077600Y-103378000D03*
%TD*%
D11*
%TO.C,JP1*%
X181275200Y-95986600D03*
X182575200Y-95986600D03*
%TD*%
D10*
%TO.C,R18*%
X163163600Y-103454200D03*
X164183600Y-103454200D03*
%TD*%
D18*
%TO.C,D2*%
X124713000Y-102464600D03*
X124713000Y-105764600D03*
%TD*%
D19*
%TO.C,D1*%
X118797800Y-94716600D03*
X122097800Y-94716600D03*
%TD*%
D14*
%TO.C,R3*%
X123723400Y-107899200D03*
X122703400Y-107899200D03*
%TD*%
%TO.C,R11*%
X153797000Y-94945200D03*
X152777000Y-94945200D03*
%TD*%
%TO.C,R9*%
X153974800Y-107238800D03*
X152954800Y-107238800D03*
%TD*%
D10*
%TO.C,R12*%
X152980200Y-98882200D03*
X154000200Y-98882200D03*
%TD*%
D14*
%TO.C,R17*%
X161239200Y-107315000D03*
X160219200Y-107315000D03*
%TD*%
%TO.C,R8*%
X154004200Y-103327200D03*
X152984200Y-103327200D03*
%TD*%
D20*
%TO.C,K1*%
X129589400Y-102266000D03*
D21*
X131539400Y-108316000D03*
D20*
X143789400Y-96266000D03*
D21*
X131539400Y-96316000D03*
%TD*%
D15*
%TO.C,R7*%
X118135400Y-107234800D03*
X118135400Y-108254800D03*
%TD*%
D14*
%TO.C,R14*%
X157124400Y-98882200D03*
X156104400Y-98882200D03*
%TD*%
D22*
%TO.C,J1*%
X154813000Y-77292200D03*
D23*
X154813000Y-74752200D03*
X152273000Y-77292200D03*
X152273000Y-74752200D03*
X149733000Y-77292200D03*
X149733000Y-74752200D03*
X147193000Y-77292200D03*
X147193000Y-74752200D03*
X144653000Y-77292200D03*
X144653000Y-74752200D03*
X142113000Y-77292200D03*
X142113000Y-74752200D03*
X139573000Y-77292200D03*
X139573000Y-74752200D03*
X137033000Y-77292200D03*
X137033000Y-74752200D03*
%TD*%
D24*
%TO.C,SW1*%
X112401200Y-103740200D03*
X112401200Y-101740200D03*
X112451200Y-99740200D03*
X112451200Y-95740200D03*
X109901200Y-103740200D03*
X109901200Y-101740200D03*
X109901200Y-99740200D03*
X109951200Y-95740200D03*
D25*
X111201200Y-105740200D03*
X111201200Y-93740200D03*
%TD*%
D14*
%TO.C,R4*%
X161213800Y-98831400D03*
X160193800Y-98831400D03*
%TD*%
D15*
%TO.C,R1*%
X118211600Y-100023200D03*
X118211600Y-101043200D03*
%TD*%
M02*
