%TF.GenerationSoftware,KiCad,Pcbnew,8.0.1*%
%TF.CreationDate,2024-03-24T23:16:52+02:00*%
%TF.ProjectId,KiCad,4b694361-642e-46b6-9963-61645f706362,rev?*%
%TF.SameCoordinates,Original*%
%TF.FileFunction,Copper,L2,Bot*%
%TF.FilePolarity,Positive*%
%FSLAX46Y46*%
G04 Gerber Fmt 4.6, Leading zero omitted, Abs format (unit mm)*
G04 Created by KiCad (PCBNEW 8.0.1) date 2024-03-24 23:16:52*
%MOMM*%
%LPD*%
G01*
G04 APERTURE LIST*
G04 Aperture macros list*
%AMRoundRect*
0 Rectangle with rounded corners*
0 $1 Rounding radius*
0 $2 $3 $4 $5 $6 $7 $8 $9 X,Y pos of 4 corners*
0 Add a 4 corners polygon primitive as box body*
4,1,4,$2,$3,$4,$5,$6,$7,$8,$9,$2,$3,0*
0 Add four circle primitives for the rounded corners*
1,1,$1+$1,$2,$3*
1,1,$1+$1,$4,$5*
1,1,$1+$1,$6,$7*
1,1,$1+$1,$8,$9*
0 Add four rect primitives between the rounded corners*
20,1,$1+$1,$2,$3,$4,$5,0*
20,1,$1+$1,$4,$5,$6,$7,0*
20,1,$1+$1,$6,$7,$8,$9,0*
20,1,$1+$1,$8,$9,$2,$3,0*%
G04 Aperture macros list end*
%TA.AperFunction,ComponentPad*%
%ADD10RoundRect,0.250000X0.625000X-0.350000X0.625000X0.350000X-0.625000X0.350000X-0.625000X-0.350000X0*%
%TD*%
%TA.AperFunction,ComponentPad*%
%ADD11O,1.750000X1.200000*%
%TD*%
%TA.AperFunction,ComponentPad*%
%ADD12R,1.905000X2.000000*%
%TD*%
%TA.AperFunction,ComponentPad*%
%ADD13O,1.905000X2.000000*%
%TD*%
%TA.AperFunction,ComponentPad*%
%ADD14C,3.000000*%
%TD*%
%TA.AperFunction,ComponentPad*%
%ADD15C,2.500000*%
%TD*%
%TA.AperFunction,ComponentPad*%
%ADD16R,1.700000X1.700000*%
%TD*%
%TA.AperFunction,ComponentPad*%
%ADD17O,1.700000X1.700000*%
%TD*%
%TA.AperFunction,ComponentPad*%
%ADD18C,1.700000*%
%TD*%
%TA.AperFunction,ComponentPad*%
%ADD19C,2.000000*%
%TD*%
%TA.AperFunction,ViaPad*%
%ADD20C,0.600000*%
%TD*%
%TA.AperFunction,Conductor*%
%ADD21C,0.200000*%
%TD*%
G04 APERTURE END LIST*
D10*
%TO.P,B1,1,+*%
%TO.N,BATT+*%
X148629200Y-89366600D03*
D11*
%TO.P,B1,2,-*%
%TO.N,BATT-*%
X148629200Y-87366600D03*
%TD*%
D12*
%TO.P,Q1,1,B*%
%TO.N,Net-(Q1-B)*%
X175133000Y-108712000D03*
D13*
%TO.P,Q1,2,C*%
%TO.N,BATT-*%
X177673000Y-108712000D03*
%TO.P,Q1,3,E*%
%TO.N,Net-(Q1-E)*%
X180213000Y-108712000D03*
%TD*%
D14*
%TO.P,K1,1*%
%TO.N,Net-(JP1-A)*%
X129589400Y-102266000D03*
D15*
%TO.P,K1,2*%
%TO.N,5V-*%
X131539400Y-108316000D03*
D14*
%TO.P,K1,4*%
%TO.N,Net-(JP2-A)*%
X143789400Y-96266000D03*
D15*
%TO.P,K1,5*%
%TO.N,5V+*%
X131539400Y-96316000D03*
%TD*%
D16*
%TO.P,J1,1,Pin_1*%
%TO.N,Motor2_A*%
X154813000Y-77292200D03*
D17*
%TO.P,J1,2,Pin_2*%
%TO.N,PC6-9*%
X154813000Y-74752200D03*
%TO.P,J1,3,Pin_3*%
%TO.N,5V-*%
X152273000Y-77292200D03*
%TO.P,J1,4,Pin_4*%
%TO.N,PC6-9*%
X152273000Y-74752200D03*
%TO.P,J1,5,Pin_5*%
%TO.N,5V-*%
X149733000Y-77292200D03*
%TO.P,J1,6,Pin_6*%
X149733000Y-74752200D03*
%TO.P,J1,7,Pin_7*%
%TO.N,BATT+*%
X147193000Y-77292200D03*
%TO.P,J1,8,Pin_8*%
%TO.N,BATT-*%
X147193000Y-74752200D03*
%TO.P,J1,9,Pin_9*%
%TO.N,PD7*%
X144653000Y-77292200D03*
%TO.P,J1,10,Pin_10*%
%TO.N,BATT+*%
X144653000Y-74752200D03*
%TO.P,J1,11,Pin_11*%
%TO.N,5V+*%
X142113000Y-77292200D03*
%TO.P,J1,12,Pin_12*%
%TO.N,5V-*%
X142113000Y-74752200D03*
%TO.P,J1,13,Pin_13*%
%TO.N,Motor1_A*%
X139573000Y-77292200D03*
%TO.P,J1,14,Pin_14*%
%TO.N,PC6-9*%
X139573000Y-74752200D03*
%TO.P,J1,15,Pin_15*%
%TO.N,5V-*%
X137033000Y-77292200D03*
%TO.P,J1,16,Pin_16*%
%TO.N,PC6-9*%
X137033000Y-74752200D03*
%TD*%
D18*
%TO.P,SW1,8*%
%TO.N,unconnected-(SW1-Pad8)*%
X112401200Y-103740200D03*
%TO.P,SW1,7*%
%TO.N,Net-(JP2-A)*%
X112401200Y-101740200D03*
%TO.P,SW1,6*%
%TO.N,unconnected-(SW1-Pad6)*%
X112451200Y-99740200D03*
%TO.P,SW1,5*%
%TO.N,BATT+*%
X112451200Y-95740200D03*
%TO.P,SW1,4*%
%TO.N,unconnected-(SW1-Pad4)*%
X109901200Y-103740200D03*
%TO.P,SW1,3*%
%TO.N,unconnected-(SW1-Pad3)*%
X109901200Y-101740200D03*
%TO.P,SW1,2*%
%TO.N,unconnected-(SW1-Pad2)*%
X109901200Y-99740200D03*
%TO.P,SW1,1*%
%TO.N,unconnected-(SW1-Pad1)*%
X109951200Y-95740200D03*
D19*
%TO.P,SW1,*%
%TO.N,*%
X111201200Y-105740200D03*
X111201200Y-93740200D03*
%TD*%
D20*
%TO.N,Motor2_A*%
X152323800Y-83870800D03*
X155625800Y-88722200D03*
X155067000Y-105892600D03*
%TD*%
D21*
%TO.N,Motor2_A*%
X154813000Y-81381600D02*
X154813000Y-77292200D01*
X152323800Y-83870800D02*
X154813000Y-81381600D01*
X155067000Y-89281000D02*
X155625800Y-88722200D01*
X155067000Y-89408000D02*
X155067000Y-89281000D01*
X155067000Y-105892600D02*
X155067000Y-89408000D01*
%TO.N,5V+*%
X145589400Y-80768600D02*
X142113000Y-77292200D01*
X131539400Y-96316000D02*
X133289400Y-98066000D01*
X133289400Y-98066000D02*
X144534985Y-98066000D01*
X145589400Y-97011585D02*
X145589400Y-80768600D01*
X144534985Y-98066000D02*
X145589400Y-97011585D01*
%TO.N,BATT+*%
X148629200Y-89366600D02*
X147193000Y-87930400D01*
X147193000Y-77292200D02*
X144653000Y-74752200D01*
X147193000Y-87930400D02*
X147193000Y-77292200D01*
%TO.N,5V-*%
X143263000Y-73602200D02*
X142113000Y-74752200D01*
X149733000Y-77292200D02*
X149733000Y-76726514D01*
X149733000Y-76726514D02*
X148352143Y-75345657D01*
X140868400Y-75996800D02*
X142113000Y-74752200D01*
X137033000Y-77292200D02*
X138328400Y-75996800D01*
X149733000Y-74752200D02*
X149733000Y-77292200D01*
X138328400Y-75996800D02*
X140868400Y-75996800D01*
X148352143Y-75345657D02*
X148352143Y-74284997D01*
X148352143Y-74284997D02*
X147669346Y-73602200D01*
X152273000Y-77292200D02*
X149733000Y-77292200D01*
X147669346Y-73602200D02*
X143263000Y-73602200D01*
%TO.N,BATT-*%
X177673000Y-108712000D02*
X156327600Y-87366600D01*
X148343000Y-75902200D02*
X147193000Y-74752200D01*
X148343000Y-87080400D02*
X148343000Y-75902200D01*
X156327600Y-87366600D02*
X148629200Y-87366600D01*
X148629200Y-87366600D02*
X148343000Y-87080400D01*
%TO.N,PC6-9*%
X137033000Y-74752200D02*
X139573000Y-74752200D01*
X154813000Y-74752200D02*
X152273000Y-74752200D01*
X150723000Y-73202200D02*
X152273000Y-74752200D01*
X141123000Y-73202200D02*
X150723000Y-73202200D01*
X139573000Y-74752200D02*
X141123000Y-73202200D01*
%TO.N,Net-(JP2-A)*%
X116763800Y-102971600D02*
X120218200Y-102971600D01*
X140944600Y-93421200D02*
X143789400Y-96266000D01*
X125552200Y-94437200D02*
X126568200Y-93421200D01*
X115532400Y-101740200D02*
X116763800Y-102971600D01*
X126568200Y-93421200D02*
X140944600Y-93421200D01*
X112401200Y-101740200D02*
X115532400Y-101740200D01*
X120218200Y-102971600D02*
X125552200Y-97637600D01*
X125552200Y-97637600D02*
X125552200Y-94437200D01*
%TD*%
M02*
