%TF.GenerationSoftware,KiCad,Pcbnew,8.0.1*%
%TF.CreationDate,2024-03-24T14:21:50+02:00*%
%TF.ProjectId,ANTEUS001 MICROMOUSE SENSING,414e5445-5553-4303-9031-204d4943524f,rev?*%
%TF.SameCoordinates,Original*%
%TF.FileFunction,Drillmap*%
%TF.FilePolarity,Positive*%
%FSLAX45Y45*%
G04 Gerber Fmt 4.5, Leading zero omitted, Abs format (unit mm)*
G04 Created by KiCad (PCBNEW 8.0.1) date 2024-03-24 14:21:50*
%MOMM*%
%LPD*%
G01*
G04 APERTURE LIST*
%ADD10C,0.050000*%
%ADD11C,0.200000*%
G04 APERTURE END LIST*
D10*
X18000000Y-4200000D02*
X26000000Y-4200000D01*
X26000000Y-7450000D01*
X18000000Y-7450000D01*
X18000000Y-4200000D01*
D11*
X18258277Y-7763984D02*
X18258277Y-7563984D01*
X18258277Y-7563984D02*
X18305896Y-7563984D01*
X18305896Y-7563984D02*
X18334467Y-7573508D01*
X18334467Y-7573508D02*
X18353515Y-7592555D01*
X18353515Y-7592555D02*
X18363039Y-7611603D01*
X18363039Y-7611603D02*
X18372563Y-7649698D01*
X18372563Y-7649698D02*
X18372563Y-7678269D01*
X18372563Y-7678269D02*
X18363039Y-7716365D01*
X18363039Y-7716365D02*
X18353515Y-7735412D01*
X18353515Y-7735412D02*
X18334467Y-7754460D01*
X18334467Y-7754460D02*
X18305896Y-7763984D01*
X18305896Y-7763984D02*
X18258277Y-7763984D01*
X18458277Y-7763984D02*
X18458277Y-7630650D01*
X18458277Y-7668746D02*
X18467801Y-7649698D01*
X18467801Y-7649698D02*
X18477324Y-7640174D01*
X18477324Y-7640174D02*
X18496372Y-7630650D01*
X18496372Y-7630650D02*
X18515420Y-7630650D01*
X18582086Y-7763984D02*
X18582086Y-7630650D01*
X18582086Y-7563984D02*
X18572563Y-7573508D01*
X18572563Y-7573508D02*
X18582086Y-7583031D01*
X18582086Y-7583031D02*
X18591610Y-7573508D01*
X18591610Y-7573508D02*
X18582086Y-7563984D01*
X18582086Y-7563984D02*
X18582086Y-7583031D01*
X18705896Y-7763984D02*
X18686848Y-7754460D01*
X18686848Y-7754460D02*
X18677324Y-7735412D01*
X18677324Y-7735412D02*
X18677324Y-7563984D01*
X18810658Y-7763984D02*
X18791610Y-7754460D01*
X18791610Y-7754460D02*
X18782086Y-7735412D01*
X18782086Y-7735412D02*
X18782086Y-7563984D01*
X19039229Y-7763984D02*
X19039229Y-7563984D01*
X19039229Y-7563984D02*
X19105896Y-7706841D01*
X19105896Y-7706841D02*
X19172563Y-7563984D01*
X19172563Y-7563984D02*
X19172563Y-7763984D01*
X19353515Y-7763984D02*
X19353515Y-7659222D01*
X19353515Y-7659222D02*
X19343991Y-7640174D01*
X19343991Y-7640174D02*
X19324944Y-7630650D01*
X19324944Y-7630650D02*
X19286848Y-7630650D01*
X19286848Y-7630650D02*
X19267801Y-7640174D01*
X19353515Y-7754460D02*
X19334467Y-7763984D01*
X19334467Y-7763984D02*
X19286848Y-7763984D01*
X19286848Y-7763984D02*
X19267801Y-7754460D01*
X19267801Y-7754460D02*
X19258277Y-7735412D01*
X19258277Y-7735412D02*
X19258277Y-7716365D01*
X19258277Y-7716365D02*
X19267801Y-7697317D01*
X19267801Y-7697317D02*
X19286848Y-7687793D01*
X19286848Y-7687793D02*
X19334467Y-7687793D01*
X19334467Y-7687793D02*
X19353515Y-7678269D01*
X19448753Y-7630650D02*
X19448753Y-7830650D01*
X19448753Y-7640174D02*
X19467801Y-7630650D01*
X19467801Y-7630650D02*
X19505896Y-7630650D01*
X19505896Y-7630650D02*
X19524944Y-7640174D01*
X19524944Y-7640174D02*
X19534467Y-7649698D01*
X19534467Y-7649698D02*
X19543991Y-7668746D01*
X19543991Y-7668746D02*
X19543991Y-7725888D01*
X19543991Y-7725888D02*
X19534467Y-7744936D01*
X19534467Y-7744936D02*
X19524944Y-7754460D01*
X19524944Y-7754460D02*
X19505896Y-7763984D01*
X19505896Y-7763984D02*
X19467801Y-7763984D01*
X19467801Y-7763984D02*
X19448753Y-7754460D01*
X19629705Y-7744936D02*
X19639229Y-7754460D01*
X19639229Y-7754460D02*
X19629705Y-7763984D01*
X19629705Y-7763984D02*
X19620182Y-7754460D01*
X19620182Y-7754460D02*
X19629705Y-7744936D01*
X19629705Y-7744936D02*
X19629705Y-7763984D01*
X19629705Y-7640174D02*
X19639229Y-7649698D01*
X19639229Y-7649698D02*
X19629705Y-7659222D01*
X19629705Y-7659222D02*
X19620182Y-7649698D01*
X19620182Y-7649698D02*
X19629705Y-7640174D01*
X19629705Y-7640174D02*
X19629705Y-7659222D01*
M02*
