M48
; DRILL file {KiCad 8.0.1} date 2024-03-24T18:49:49+0200
; FORMAT={-:-/ absolute / metric / decimal}
; #@! TF.CreationDate,2024-03-24T18:49:49+02:00
; #@! TF.GenerationSoftware,Kicad,Pcbnew,8.0.1
; #@! TF.FileFunction,Plated,1,2,PTH
FMAT,2
METRIC
; #@! TA.AperFunction,Plated,PTH,ViaDrill
T1C0.300
; #@! TA.AperFunction,Plated,PTH,ComponentDrill
T2C0.750
; #@! TA.AperFunction,Plated,PTH,ComponentDrill
T3C0.900
; #@! TA.AperFunction,Plated,PTH,ComponentDrill
T4C1.000
%
G90
G05
T1
X65.944Y-64.498
X114.598Y-65.775
T2
X85.73Y-66.86
X87.0Y-66.86
X87.5Y-73.0
X87.5Y-75.0
X88.27Y-66.86
X89.5Y-73.0
X89.5Y-75.0
X91.5Y-73.0
X91.5Y-75.0
X92.23Y-66.36
X93.5Y-75.0
X93.5Y-66.36
X93.5Y-73.0
X94.77Y-66.36
X95.5Y-73.0
X95.5Y-75.0
X97.5Y-73.0
X97.5Y-75.0
X98.73Y-65.0
X99.5Y-75.0
X99.5Y-73.0
X100.0Y-65.0
X101.27Y-65.0
X101.5Y-73.0
X101.5Y-75.0
X103.5Y-73.0
X103.5Y-75.0
X105.5Y-73.0
X105.5Y-75.0
X107.5Y-73.0
X107.5Y-75.0
X109.5Y-73.0
X109.5Y-75.0
X111.5Y-75.0
X111.5Y-73.0
X113.5Y-73.0
X113.5Y-75.0
T3
X80.5Y-64.0
X82.296Y-62.204
X85.5Y-59.0
X87.296Y-57.204
X96.235Y-56.475
X98.775Y-56.475
X103.235Y-56.475
X105.775Y-56.475
X113.941Y-57.27
X115.737Y-59.066
X119.441Y-62.27
X121.237Y-64.066
T4
X82.0Y-68.0
X82.0Y-74.0
X107.5Y-65.5
X124.0Y-74.0
X128.0Y-74.0
X135.0Y-70.0
M30
