%TF.GenerationSoftware,KiCad,Pcbnew,8.0.1*%
%TF.CreationDate,2024-03-24T18:49:43+02:00*%
%TF.ProjectId,ANTEUS001 MICROMOUSE SENSING,414e5445-5553-4303-9031-204d4943524f,rev?*%
%TF.SameCoordinates,Original*%
%TF.FileFunction,Soldermask,Top*%
%TF.FilePolarity,Negative*%
%FSLAX46Y46*%
G04 Gerber Fmt 4.6, Leading zero omitted, Abs format (unit mm)*
G04 Created by KiCad (PCBNEW 8.0.1) date 2024-03-24 18:49:43*
%MOMM*%
%LPD*%
G01*
G04 APERTURE LIST*
G04 Aperture macros list*
%AMRoundRect*
0 Rectangle with rounded corners*
0 $1 Rounding radius*
0 $2 $3 $4 $5 $6 $7 $8 $9 X,Y pos of 4 corners*
0 Add a 4 corners polygon primitive as box body*
4,1,4,$2,$3,$4,$5,$6,$7,$8,$9,$2,$3,0*
0 Add four circle primitives for the rounded corners*
1,1,$1+$1,$2,$3*
1,1,$1+$1,$4,$5*
1,1,$1+$1,$6,$7*
1,1,$1+$1,$8,$9*
0 Add four rect primitives between the rounded corners*
20,1,$1+$1,$2,$3,$4,$5,0*
20,1,$1+$1,$4,$5,$6,$7,0*
20,1,$1+$1,$6,$7,$8,$9,0*
20,1,$1+$1,$8,$9,$2,$3,0*%
%AMRotRect*
0 Rectangle, with rotation*
0 The origin of the aperture is its center*
0 $1 length*
0 $2 width*
0 $3 Rotation angle, in degrees counterclockwise*
0 Add horizontal line*
21,1,$1,$2,0,0,$3*%
G04 Aperture macros list end*
%ADD10C,1.200000*%
%ADD11RoundRect,0.250000X0.350000X0.350000X-0.350000X0.350000X-0.350000X-0.350000X0.350000X-0.350000X0*%
%ADD12RoundRect,0.250000X-0.312500X-0.625000X0.312500X-0.625000X0.312500X0.625000X-0.312500X0.625000X0*%
%ADD13RoundRect,0.250000X0.312500X0.625000X-0.312500X0.625000X-0.312500X-0.625000X0.312500X-0.625000X0*%
%ADD14RotRect,1.800000X1.800000X135.000000*%
%ADD15C,1.800000*%
%ADD16R,1.800000X1.800000*%
%ADD17RotRect,1.800000X1.800000X225.000000*%
%ADD18O,1.050000X1.500000*%
%ADD19R,1.050000X1.500000*%
%ADD20R,1.700000X1.700000*%
%ADD21RoundRect,0.250000X0.250000X0.475000X-0.250000X0.475000X-0.250000X-0.475000X0.250000X-0.475000X0*%
%ADD22RoundRect,0.250000X-0.250000X-0.475000X0.250000X-0.475000X0.250000X0.475000X-0.250000X0.475000X0*%
G04 APERTURE END LIST*
D10*
%TO.C,J8*%
X87500000Y-73000000D03*
X87500000Y-75000000D03*
X89500000Y-73000000D03*
X89500000Y-75000000D03*
X91500000Y-73000000D03*
X91500000Y-75000000D03*
X93500000Y-73000000D03*
X93499999Y-75000000D03*
X95500000Y-72999999D03*
X95500000Y-75000000D03*
X97500000Y-73000000D03*
X97500001Y-75000000D03*
X99500001Y-73000000D03*
X99500000Y-75000000D03*
X101500000Y-73000000D03*
X101500001Y-75000000D03*
X103500000Y-73000000D03*
X103500000Y-75000000D03*
X105500000Y-73000000D03*
X105500000Y-75000000D03*
X107500000Y-73000000D03*
X107500000Y-75000000D03*
X109499999Y-73000000D03*
X109500000Y-75000000D03*
X111500000Y-73000000D03*
X111499999Y-75000000D03*
X113500000Y-72999999D03*
D11*
X113500000Y-75000000D03*
%TD*%
D12*
%TO.C,R11*%
X113962500Y-67500000D03*
X111037500Y-67500000D03*
%TD*%
D13*
%TO.C,R12*%
X125000000Y-69000000D03*
X122075000Y-69000000D03*
%TD*%
D12*
%TO.C,R10*%
X139962500Y-66000000D03*
X137037500Y-66000000D03*
%TD*%
%TO.C,R9*%
X139925000Y-74500000D03*
X137000000Y-74500000D03*
%TD*%
%TO.C,R8*%
X67100000Y-64500000D03*
X64175000Y-64500000D03*
%TD*%
%TO.C,R7*%
X72462500Y-65000000D03*
X69537500Y-65000000D03*
%TD*%
%TO.C,R6*%
X134500000Y-65500000D03*
X131575000Y-65500000D03*
%TD*%
%TO.C,R5*%
X131037500Y-74500000D03*
X133962500Y-74500000D03*
%TD*%
%TO.C,R4*%
X129000000Y-65000000D03*
X126075000Y-65000000D03*
%TD*%
D13*
%TO.C,R3*%
X80462500Y-71000000D03*
X77537500Y-71000000D03*
%TD*%
D12*
%TO.C,R2*%
X120000000Y-70500000D03*
X117075000Y-70500000D03*
%TD*%
%TO.C,R1*%
X117575000Y-74500000D03*
X120500000Y-74500000D03*
%TD*%
D14*
%TO.C,Q6*%
X121237300Y-64065900D03*
D15*
X119441249Y-62269849D03*
%TD*%
%TO.C,Q5*%
X103235000Y-56475000D03*
D16*
X105775000Y-56475000D03*
%TD*%
D15*
%TO.C,Q4*%
X85500049Y-58999951D03*
D17*
X87296100Y-57203900D03*
%TD*%
D18*
%TO.C,Q3*%
X101270000Y-65000000D03*
X100000000Y-65000000D03*
D19*
X98730000Y-65000000D03*
%TD*%
D18*
%TO.C,Q2*%
X94770000Y-66360000D03*
X93500000Y-66360000D03*
D19*
X92230000Y-66360000D03*
%TD*%
D18*
%TO.C,Q1*%
X88270000Y-66860000D03*
X87000000Y-66860000D03*
D19*
X85730000Y-66860000D03*
%TD*%
D20*
%TO.C,J7*%
X124000000Y-74000000D03*
%TD*%
%TO.C,J6*%
X135000000Y-70000000D03*
%TD*%
%TO.C,J5*%
X107500000Y-65500000D03*
%TD*%
%TO.C,J4*%
X128000000Y-74000000D03*
%TD*%
%TO.C,J3*%
X82000000Y-68000000D03*
%TD*%
%TO.C,J2*%
X82000000Y-74000000D03*
%TD*%
D14*
%TO.C,D5*%
X115737300Y-59065900D03*
D15*
X113941249Y-57269849D03*
%TD*%
%TO.C,D3*%
X96235000Y-56475000D03*
D16*
X98775000Y-56475000D03*
%TD*%
D15*
%TO.C,D1*%
X80500049Y-63999951D03*
D17*
X82296100Y-62203900D03*
%TD*%
D21*
%TO.C,C6*%
X74550001Y-65500000D03*
X76449999Y-65500000D03*
%TD*%
%TO.C,C5*%
X71399999Y-70000000D03*
X69500001Y-70000000D03*
%TD*%
%TO.C,C4*%
X74986701Y-74500000D03*
X76886699Y-74500000D03*
%TD*%
D22*
%TO.C,C3*%
X72000000Y-74500000D03*
X70100000Y-74500000D03*
%TD*%
%TO.C,C2*%
X65000000Y-70000000D03*
X66900000Y-70000000D03*
%TD*%
%TO.C,C1*%
X66487500Y-74500000D03*
X64587500Y-74500000D03*
%TD*%
M02*
